<svg width="1024" height="1024" viewBox="0 0 1024 1024" xmlns="http://www.w3.org/2000/svg">
  <defs>
    <!-- 背景渐变 -->
    <linearGradient id="bgGradient" x1="0%" y1="0%" x2="100%" y2="100%">
      <stop offset="0%" style="stop-color:#667eea;stop-opacity:1" />
      <stop offset="100%" style="stop-color:#764ba2;stop-opacity:1" />
    </linearGradient>
    
    <!-- 图标渐变 -->
    <linearGradient id="iconGradient" x1="0%" y1="0%" x2="100%" y2="100%">
      <stop offset="0%" style="stop-color:#ffffff;stop-opacity:0.95" />
      <stop offset="100%" style="stop-color:#f8f9fa;stop-opacity:0.9" />
    </linearGradient>
    
    <!-- 阴影滤镜 -->
    <filter id="shadow" x="-20%" y="-20%" width="140%" height="140%">
      <feDropShadow dx="0" dy="8" stdDeviation="12" flood-color="#000000" flood-opacity="0.15"/>
    </filter>
  </defs>
  
  <!-- 圆角矩形背景 -->
  <rect x="0" y="0" width="1024" height="1024" rx="180" ry="180" fill="url(#bgGradient)"/>
  
  <!-- 主图标组 -->
  <g transform="translate(512, 512) scale(2)" filter="url(#shadow)">
    <!-- 聊天气泡主体 -->
    <path d="M -180 -120 Q -180 -160 -140 -160 L 140 -160 Q 180 -160 180 -120 L 180 -40 Q 180 0 140 0 L -60 0 L -140 60 Q -160 75 -160 50 L -160 0 Q -180 0 -180 -40 Z" 
          fill="url(#iconGradient)" stroke="none"/>
    
    <!-- 提示符号 (>) -->
    <path d="M -120 -100 L -80 -70 L -120 -40" 
          stroke="#667eea" stroke-width="12" stroke-linecap="round" stroke-linejoin="round" fill="none"/>
    
    <!-- 文本线条 -->
    <rect x="-40" y="-110" width="140" height="8" rx="4" fill="#667eea" opacity="0.7"/>
    <rect x="-40" y="-85" width="100" height="8" rx="4" fill="#667eea" opacity="0.5"/>
    <rect x="-40" y="-60" width="120" height="8" rx="4" fill="#667eea" opacity="0.6"/>
    
    <!-- 装饰性星星 -->
    <g transform="translate(120, -120)">
      <path d="M 0 -12 L 3 -3 L 12 -3 L 6 3 L 9 12 L 0 6 L -9 12 L -6 3 L -12 -3 L -3 -3 Z" 
            fill="#ffffff" opacity="0.8"/>
    </g>
    
    <g transform="translate(-140, 80)">
      <path d="M 0 -8 L 2 -2 L 8 -2 L 4 2 L 6 8 L 0 4 L -6 8 L -4 2 L -8 -2 L -2 -2 Z" 
            fill="#ffffff" opacity="0.6"/>
    </g>
  </g>
  
  <!-- 底部装饰光效 -->
  <ellipse cx="512" cy="900" rx="300" ry="60" fill="#ffffff" opacity="0.1"/>
</svg>